<svg xmlns="http://www.w3.org/2000/svg" aria-hidden="true" style="position:absolute;width:0;height:0;overflow:hidden">
    <defs>
        <symbol id="icon-circle-thin" viewBox="0 0 24 28">
            <path
                d="M12 4c-5.516 0-10 4.484-10 10s4.484 10 10 10 10-4.484 10-10-4.484-10-10-10zM24 14c0 6.625-5.375 12-12 12s-12-5.375-12-12 5.375-12 12-12v0c6.625 0 12 5.375 12 12z">
            </path>
        </symbol>
        <symbol id="icon-person" viewBox="0 0 32 32">
            <path fill="#ff4e4e" style="fill: var(--color1, #ff4e4e)"
                d="M16 0c-8.823 0-16 7.178-16 16s7.177 16 16 16c8.823 0 16-7.178 16-16s-7.177-16-16-16zM16 30.667c-8.087 0-14.667-6.579-14.667-14.667s6.579-14.667 14.667-14.667c8.087 0 14.667 6.579 14.667 14.667s-6.579 14.667-14.667 14.667z">
            </path>
            <path fill="#ff4e4e" style="fill: var(--color1, #ff4e4e)"
                d="M12.667 6.667h-4c-1.103 0-2 0.897-2 2v4c0 1.103 0.897 2 2 2h4c1.103 0 2-0.897 2-2v-4c0-1.103-0.897-2-2-2zM13.333 12.667c0 0.368-0.3 0.667-0.667 0.667h-4c-0.367 0-0.667-0.299-0.667-0.667v-4c0-0.368 0.3-0.667 0.667-0.667h4c0.367 0 0.667 0.299 0.667 0.667v4z">
            </path>
            <path fill="#ff4e4e" style="fill: var(--color1, #ff4e4e)"
                d="M23.333 6.667h-4c-1.103 0-2 0.897-2 2v4c0 1.103 0.897 2 2 2h4c1.103 0 2-0.897 2-2v-4c0-1.103-0.897-2-2-2zM24 12.667c0 0.368-0.3 0.667-0.667 0.667h-4c-0.367 0-0.667-0.299-0.667-0.667v-4c0-0.368 0.3-0.667 0.667-0.667h4c0.367 0 0.667 0.299 0.667 0.667v4z">
            </path>
            <path fill="#ff4e4e" style="fill: var(--color1, #ff4e4e)"
                d="M12.667 17.333h-4c-1.103 0-2 0.897-2 2v4c0 1.103 0.897 2 2 2h4c1.103 0 2-0.897 2-2v-4c0-1.103-0.897-2-2-2zM13.333 23.333c0 0.368-0.3 0.667-0.667 0.667h-4c-0.367 0-0.667-0.299-0.667-0.667v-4c0-0.368 0.3-0.667 0.667-0.667h4c0.367 0 0.667 0.299 0.667 0.667v4z">
            </path>
            <path fill="#ff4e4e" style="fill: var(--color1, #ff4e4e)"
                d="M23.333 17.333h-4c-1.103 0-2 0.897-2 2v4c0 1.103 0.897 2 2 2h4c1.103 0 2-0.897 2-2v-4c0-1.103-0.897-2-2-2zM24 23.333c0 0.368-0.3 0.667-0.667 0.667h-4c-0.367 0-0.667-0.299-0.667-0.667v-4c0-0.368 0.3-0.667 0.667-0.667h4c0.367 0 0.667 0.299 0.667 0.667v4z">
            </path>
        </symbol>

        <symbol id="icon-diamond" viewBox="0 0 32 32">
            <path fill="none" stroke="#ed553b" style="stroke: var(--color2, #ed553b)" stroke-linejoin="round"
                stroke-linecap="round" stroke-miterlimit="4" stroke-width="2.0426"
                d="M19.253 1.362l4.879 9.759-8.132 19.518"></path>
            <path fill="none" stroke="#ed553b" style="stroke: var(--color2, #ed553b)" stroke-linejoin="round"
                stroke-linecap="round" stroke-miterlimit="4" stroke-width="2.0426"
                d="M12.747 1.362l-4.879 9.759 8.132 19.518"></path>
            <path fill="none" stroke="#ed553b" style="stroke: var(--color2, #ed553b)" stroke-linejoin="round"
                stroke-linecap="round" stroke-miterlimit="4" stroke-width="2.0426"
                d="M24.132 1.362h-16.265l-6.506 9.759 14.638 19.518 14.638-19.518-6.506-9.759z"></path>
            <path fill="none" stroke="#ed553b" style="stroke: var(--color2, #ed553b)" stroke-linejoin="round"
                stroke-linecap="round" stroke-miterlimit="4" stroke-width="2.0426" d="M1.362 11.121h29.277"></path>
        </symbol>
        <symbol id="icon-home" viewBox="0 0 32 32">
            <path fill="#c1c1c1" style="fill: var(--color3, #c1c1c1)" d="M0 0.32h32v31.36h-32v-31.36z"></path>
            <path fill="#fff" style="fill: var(--color4, #fff)" d="M-95.36-994.24h224v3960.96h-224v-3960.96z"></path>
            <path fill="#fff" style="fill: var(--color4, #fff)" d="M-79.36-18.24h192v172.8h-192v-172.8z"></path>
            <path fill="#ed553b" style="fill: var(--color2, #ed553b)"
                d="M3.043 20.993v0zM1.485 12.337v0zM7.992 5.761v0zM1.644 11.848v0zM7.287 29.214v0zM6.87 28.911v0zM28.956 20.993v0zM25.13 28.911v0zM24.713 29.214v0zM24.008 5.761v0zM30.356 11.848v0zM30.515 12.337v0zM16.257 1.605v0zM15.743 1.605v0zM15.040 26.606c0 0.53 0.43 0.96 0.96 0.96s0.96-0.43 0.96-0.96h-1.92zM16.96 23.799c0-0.53-0.43-0.96-0.96-0.96s-0.96 0.43-0.96 0.96h1.92zM21.613 30.236v0zM3.957 20.696c-0.721-2.22-1.237-3.812-1.508-5.106-0.266-1.272-0.274-2.166-0.040-2.989l-1.847-0.526c-0.351 1.233-0.295 2.468 0.007 3.909 0.297 1.419 0.853 3.126 1.561 5.306l1.826-0.593zM7.428 4.985c-1.854 1.347-3.307 2.401-4.382 3.375-1.091 0.989-1.863 1.955-2.303 3.158l1.803 0.66c0.294-0.804 0.826-1.522 1.789-2.395 0.98-0.888 2.334-1.873 4.222-3.245l-1.129-1.553zM2.408 12.6c0.041-0.142 0.086-0.283 0.137-0.422l-1.803-0.66c-0.067 0.183-0.127 0.369-0.181 0.556l1.847 0.526zM2.13 21.289c0.708 2.18 1.262 3.888 1.856 5.211 0.603 1.344 1.283 2.376 2.292 3.167l1.185-1.511c-0.674-0.529-1.193-1.256-1.725-2.442-0.542-1.206-1.060-2.798-1.781-5.018l-1.826 0.593zM7.822 28.417c-0.123-0.083-0.243-0.17-0.359-0.261l-1.185 1.511c0.153 0.12 0.311 0.235 0.473 0.344l1.071-1.594zM28.044 20.696c-0.721 2.219-1.24 3.811-1.781 5.018-0.532 1.186-1.051 1.913-1.725 2.442l1.185 1.511c1.009-0.791 1.689-1.823 2.292-3.167 0.594-1.323 1.147-3.031 1.856-5.211l-1.826-0.593zM24.537 28.156c-0.117 0.091-0.236 0.178-0.359 0.261l1.071 1.594c0.162-0.109 0.32-0.223 0.473-0.344l-1.185-1.511zM23.443 6.538c1.888 1.372 3.242 2.357 4.222 3.245 0.963 0.873 1.495 1.591 1.789 2.395l1.803-0.66c-0.441-1.204-1.212-2.17-2.303-3.158-1.075-0.974-2.528-2.028-4.382-3.375l-1.129 1.553zM29.869 21.289c0.708-2.18 1.264-3.887 1.561-5.306 0.302-1.441 0.358-2.676 0.007-3.909l-1.847 0.526c0.235 0.824 0.227 1.717-0.040 2.989-0.271 1.294-0.787 2.887-1.508 5.106l1.826 0.593zM29.454 12.178c0.051 0.139 0.097 0.28 0.137 0.422l1.847-0.526c-0.053-0.188-0.114-0.373-0.181-0.556l-1.803 0.66zM24.572 4.985c-1.854-1.347-3.306-2.403-4.564-3.125-1.278-0.732-2.435-1.168-3.715-1.215l-0.070 1.919c0.856 0.031 1.703 0.315 2.831 0.962 1.147 0.658 2.502 1.641 4.39 3.012l1.129-1.553zM8.557 6.538c1.888-1.372 3.243-2.355 4.39-3.012 1.128-0.647 1.975-0.93 2.831-0.962l-0.070-1.919c-1.281 0.047-2.438 0.482-3.715 1.215-1.258 0.721-2.71 1.778-4.564 3.125l1.129 1.553zM16.292 0.645c-0.195-0.007-0.39-0.007-0.585 0l0.070 1.919c0.148-0.005 0.296-0.005 0.444 0l0.070-1.919zM20.653 23.799v5.613h1.92v-5.613h-1.92zM11.347 29.412v-5.613h-1.92v5.613h1.92zM16 19.146c2.57 0 4.653 2.083 4.653 4.653h1.92c0-3.63-2.943-6.573-6.573-6.573v1.92zM16 17.226c-3.63 0-6.573 2.943-6.573 6.573h1.92c0-2.57 2.083-4.653 4.653-4.653v-1.92zM16.96 26.606v-2.807h-1.92v2.807h1.92zM16 31.366c2.395 0 4.25 0.002 5.729-0.177l-0.231-1.906c-1.337 0.162-3.055 0.164-5.498 0.164v1.92zM21.729 31.189c1.374-0.166 2.505-0.496 3.52-1.178l-1.071-1.594c-0.679 0.456-1.486 0.721-2.68 0.866l0.231 1.906zM20.653 29.412v0.823h1.92v-0.823h-1.92zM16 29.446c-2.443 0-4.161-0.002-5.498-0.164l-0.231 1.906c1.479 0.179 3.334 0.177 5.729 0.177v-1.92zM10.502 29.283c-1.194-0.145-2.002-0.41-2.68-0.866l-1.071 1.594c1.015 0.682 2.146 1.012 3.52 1.178l0.231-1.906zM9.427 29.412v0.823h1.92v-0.823h-1.92z">
            </path>
        </symbol>
        <symbol id="icon-glass" viewBox="0 0 32 32">
            <path fill="#ed553b" style="fill: var(--color2, #ed553b)"
                d="M25.803 24.591c-0.335-0.335-0.877-0.335-1.212 0s-0.335 0.877 0 1.212l1.212-1.212zM30.251 31.463c0.335 0.335 0.878 0.335 1.212 0s0.335-0.878 0-1.212l-1.212 1.212zM11.49 6.321c0.468-0.074 0.787-0.513 0.713-0.981s-0.513-0.787-0.981-0.713l0.268 1.693zM4.628 11.222c-0.074 0.468 0.245 0.907 0.713 0.981s0.907-0.245 0.981-0.713l-1.693-0.268zM24.591 25.804l5.66 5.66 1.212-1.212-5.66-5.66-1.212 1.212zM13.878 25.755c-6.56 0-11.878-5.318-11.878-11.878h-1.714c0 7.507 6.085 13.592 13.592 13.592v-1.714zM25.755 13.878c0 6.56-5.318 11.878-11.878 11.878v1.714c7.507 0 13.592-6.085 13.592-13.592h-1.714zM13.878 2c6.56 0 11.878 5.318 11.878 11.878h1.714c0-7.507-6.085-13.592-13.592-13.592v1.714zM13.878 0.286c-7.507 0-13.592 6.085-13.592 13.592h1.714c0-6.56 5.318-11.878 11.878-11.878v-1.714zM11.222 4.628c-3.394 0.538-6.056 3.199-6.593 6.593l1.693 0.268c0.421-2.66 2.508-4.747 5.168-5.168l-0.268-1.693z">
            </path>
        </symbol>
        <symbol id="icon-radio-unchecked" viewBox="0 0 32 32">
            <path
                d="M16 0c-8.837 0-16 7.163-16 16s7.163 16 16 16 16-7.163 16-16-7.163-16-16-16zM16 28c-6.627 0-12-5.373-12-12s5.373-12 12-12c6.627 0 12 5.373 12 12s-5.373 12-12 12z">
            </path>
        </symbol>

    </defs>
</svg>